<?xml version="1.0" encoding="UTF-8"?><svg id="uuid-43a99ee3-f439-4cbf-b140-43592cf5322d" xmlns="http://www.w3.org/2000/svg" viewBox="0 0 956.25 395.7"><defs><style>.uuid-3d1d07ef-ab7f-41bf-a98f-affc5240adb7{font-family:MyriadPro-Regular, 'Myriad Pro';font-size:21.87px;}</style></defs><g><path d="M798,22.51c-87.4,0-158.25,70.85-158.25,158.25s70.85,158.25,158.25,158.25,158.25-70.85,158.25-158.25S885.4,22.51,798,22.51Zm-.24,296.58c-76.64,0-138.77-62.13-138.77-138.77s62.13-138.77,138.77-138.77,138.77,62.13,138.77,138.77-62.13,138.77-138.77,138.77Z"/><circle cx="797.77" cy="180.06" r="19.49"/></g><path d="M224.25,43.51c-62.41,13.46-117.25,40.18-134,31-8.58-4.7-11-12-11-12-.54-1.69-1.73-5.39,0-8,2.65-4.01,10.49-2.37,15.5-2.5,20.39-.52,39.29-5.59,52-9,6.92-1.86,16.57-4.81,21.6-6.35,3.18-.98,5.83-1.8,15.09-4.75,19.97-6.35,29.97-9.66,32.69-10.37,7.36-1.91,19.26-4.92,34.12-5.03,10.95-.08,20.02,1.44,31,4,0,0,54.58,12.73,103,53,2.39,1.99,2.66,3.83,2.7,4.3,.23,2.21-1.18,4.02-1.7,4.7-3.53,4.54-10.49,4.77-13,4-.25-.08-2.1-.67-4.41-1.72,0,0-.29-.13-.59-.28-17.31-8.33-47.67-24.98-66-33-8.14-3.56-15.48-6.77-26-9-22.13-4.7-40.46-1.27-51,1Z"/><path d="M365.25,129.51c-3.58-2.13-2.75-1.68-5-3-21.41-12.61-64.67-38.65-112.5-39.5-17.54-.31-32.93,2.53-62.79,11.55-22.22,6.71-40.01,14.78-83.11,29.45h0c-12.87,3.99-33.45,8.37-58.1,5-10.21-1.4-19.11-3.85-26.5-6.5-1.09-.5-2.61-1-4.46-1.07-1.78-.06-3.13,.31-4.04,.57-.56,.16-2.4,.69-3.93,1.73C.07,130.98,.01,138.01,0,139.51c0,0,.06,2.47,.75,4.5,1.85,5.46,14.41,11.24,36.43,13,62.72,31.49,110.07,66.52,146.07,102.5,.25,.25,.32,.32,.5,.5,31.42,31.37,89.04,86.51,159,91,26.18,1.68,42.38-5.56,49-9,6.39-3.32,21.59-11.48,31-29,11.71-21.8,11.57-52.73-4-67-1.7-1.56-8.63-7.67-18-7-5.51,.39-13.87,3.29-16.5,10.5-2.73,7.49,2.22,15.49,6.5,19.5,7.96,7.47,15.86,3.58,20,9,5.32,6.97-2.1,24.31-13,35-3.39,3.32-16.03,14.75-45,16-22.12,.96-46.4-4.25-78-22-46.24-25.98-77.95-61.76-98.5-91.5,20.37,5.98,37.69,8.67,50,10,21,2.28,71.92,7.33,129.5-15.5,13.48-5.34,32.31-14.2,52.96-28.94,14.3,8.64,23.49,12.03,29.54,8.44,3.1-1.84,5.97-5.85,6-10,.1-12.38-24.07-17.34-79-50Zm-17.03,61.49c-6.52,2.61-12.91,4.26-21.97,6.51-50.32,12.51-91.7,6.87-112,4-24.21-3.42-44.52-9.31-48.5-10.5-2.23-.67-10.66-3.21-19.5-6.5-13.42-5-33.87-14.04-58.38-30.47,4.91-.93,10.03-2.09,15.38-3.53,0,0,0,0,0,0,76.87-21.47,91.92-40.18,138-41,19.93-.36,35.61,2.82,41,4,26.47,5.81,46.23,17.19,67.5,29.5,5.69,3.29,11.76,7.12,11.76,7.12,8.42,5.26,14.48,9.39,16.38,10.67,3.09,2.09,6.03,4.09,8.86,5.99-8.9,8.06-21.62,17.45-38.52,24.21Z"/><text class="uuid-3d1d07ef-ab7f-41bf-a98f-affc5240adb7" transform="translate(926.79 45.94)"><tspan x="0" y="0">TM</tspan></text><path d="M722.75,377.51c-3.67-3.92-8.54-1.77-18-6,0,0-2.71-1.21-7-4-8.52-5.54-68.4-75.71-148-173,6.71-6.19,16.2-16.33,24-31,2.06-3.86,4.87-9.1,7-16,6.01-19.46,2.05-36.56,.5-43-5.48-22.68-18.46-36.97-25-44-7.37-7.92-13.93-12.62-27-22-14.55-10.44-28.38-18.24-36-26-2.06-2.09-4.3-3.91-8.78-7.55-3.52-2.86-5.01-3.87-7.22-4.45-1.08-.28-5.4-1.42-9,1-2.77,1.86-3.63,4.84-4,6-2.19,6.9,2.17,15.83,10.54,22.83l5.46,298.17c.24,2.35,.91,6.03,3,10,2.86,5.43,6.85,8.55,9,10,1.84-1.59,4.76-4.51,7-9,1.09-2.18,2.65-5.99,3-11-.22-41.33-.44-82.67-.65-124h27.83c17.98,23.27,37.07,46.98,57.32,71,33.25,39.44,66.28,75.72,98.5,109,4.64,3.57,8.92,5.71,12,7,5.12,2.15,16.67,7,24,2,2.23-1.52,3.19-3.35,3.5-4,1.87-3.94,.8-9.02-2-12Zm-191.22-192h-30.03c-.25-47.33-.5-94.67-.75-142,1.95,1.03,4.97,2.71,8.5,5,5.98,3.87,54.2,36.03,51.5,80-1.13,18.46-10.82,32.92-17,42-4.05,5.95-8.27,10.91-12.22,15Z"/></svg>